{"title":"Bree Olson - Face Fucking inc 2 (rough throat abused)","uid":10795886,"size":187851862,"categoryP":"porn","categoryS":"movie_clips","magnet":"?xt=urn:btih:7aa3c5501f2042b6fe27ec2bfc9a98c2d9a5186b&amp;dn=Bree+Olson+-+Face+Fucking+inc+2+%28rough+throat+abused%29&amp;tr=udp%3A%2F%2Ftracker.openbittorrent.com%3A80&amp;tr=udp%3A%2F%2Fopen.demonii.com%3A1337&amp;tr=udp%3A%2F%2Ftracker.coppersurfer.tk%3A6969&amp;tr=udp%3A%2F%2Fexodus.desync.com%3A6969","seeders":8,"leechers":6,"uploader":"ThousandPeers","files":-1,"time":1408293083,"description":"Format                                   : AVI\nFormat/Info                              : Audio Video Interleave\nFile size                                : 148 MiB\nDuration                                 : 19mn 53s\nOverall bit rate mode                    : Variable\nOverall bit rate                         : 1 037 Kbps\nWriting application                      : Nandub v1.0rc2\nWriting library                          : Nandub build 1853/release\n\nVideo\nID                                       : 0\nFormat                                   : MPEG-4 Visual\nFormat profile                           : Advanced Simple@L5\nFormat settings, BVOP                    : 1\nFormat settings, QPel                    : No\nFormat settings, GMC                     : No warppoints\nFormat settings, Matrix                  : Default (H.263)\nCodec ID                                 : XVID\nCodec ID/Hint                            : XviD\nDuration                                 : 19mn 53s\nBit rate                                 : 887 Kbps\nWidth                                    : 448 pixels\nHeight                                   : 336 pixels\nDisplay aspect ratio                     : 4:3\nFrame rate                               : 29.970 fps\nColor space                              : YUV\nChroma subsampling                       : 4:2:0\nBit depth                                : 8 bits\nScan type                                : Progressive\nCompression mode                         : Lossy\nBits/(Pixel*Frame)                       : 0.197\nStream size                              : 126 MiB (85%)\nWriting library                          : XviD 1.0.3 (UTC 2004-12-20)\n\nAudio\nID                                       : 1\nFormat                                   : MPEG Audio\nFormat version                           : Version 1\nFormat profile                           : Layer 3\nMode                                     : Joint stereo\nMode extension                           : MS Stereo\nCodec ID                                 : 55\nCodec ID/Hint                            : MP3\nDuration                                 : 19mn 49s\nBit rate mode                            : Variable\nBit rate                                 : 137 Kbps\nChannel(s)                               : 2 channels\nSampling rate                            : 48.0 KHz\nCompression mode                         : Lossy\nStream size                              : 19.4 MiB (13%)\nAlignment                                : Aligned on interleaves\nInterleave, duration                     : 24 ms (0.72 video frame)\nInterleave, preload duration             : 418 ms","torrent":{"xt":"urn:btih:7aa3c5501f2042b6fe27ec2bfc9a98c2d9a5186b","amp;dn":"Bree+Olson+-+Face+Fucking+inc+2+%28rough+throat+abused%29","amp;tr":["udp%3A%2F%2Ftracker.openbittorrent.com%3A80","udp%3A%2F%2Fopen.demonii.com%3A1337","udp%3A%2F%2Ftracker.coppersurfer.tk%3A6969","udp%3A%2F%2Fexodus.desync.com%3A6969"],"infoHash":"7aa3c5501f2042b6fe27ec2bfc9a98c2d9a5186b","infoHashBuffer":{"type":"Buffer","data":[122,163,197,80,31,32,66,182,254,39,236,43,252,154,152,194,217,165,24,107]},"announce":[],"urlList":[]}}